<?xml version="1.0" standalone="no"?>
<svg width="600px" height="400px" xmlns="http://www.w3.org/2000/svg" version="1.1" xmlns:xlink="http://www.w3.org/1999/xlink">
	<defs>
		<rect id="r1" x="100" y="0" width="400" height="31" stroke="black" stroke-width="1" />
		<path id="ra" d="M 0 8 l 20 0 l 0 -8 l 10 10 l -10 10 l 0 -8 l -20 0 l 0 -5" stroke="black" stroke-width="1" fill="black" />
		<path id="la" d="M 30 8 l -20 0 l 0 -8 l -10 10 l 10 10 l 0 -8 l 20 0 l 0 -5" stroke="black" stroke-width="1" fill="black" />
		<path id="da" d="M 0 5 l 5 -5 l 5 5 l -4 0 l 0 10 l 4 0 l -5 5 l -5 -5 l 4 0 l 0 -10 l -4 0 l 5 -5" stroke="black" fill="black" />
		<linearGradient id="b2p" x1="0%" y1="100%" x2="100%" y2="100%">
			<stop stop-color="#0000FF" offset="0%" />
			<stop stop-color="#880088" offset="100%" />
		</linearGradient>
		<linearGradient id="r2p" x1="0%" y1="100%" x2="100%" y2="100%">
			<stop stop-color="#FF0000" offset="0%" />
			<stop stop-color="#880088" offset="100%" />
		</linearGradient>
		<linearGradient id="b2r" x1="0%" y1="100%" x2="100%" y2="100%">
			<stop stop-color="#0000FF" offset="0%" />
			<stop stop-color="#FF0000" offset="100%" />
		</linearGradient>
	</defs>

	<use y="50"  fill="url(#b2p)" xlink:href="#r1" />
	<use x="500" y="56" xlink:href="#ra" />
	<text x="535" y="71" font-size="12">flow</text>
	<text x="100" y="45" font-size="12">0%</text>
	<text x="440" y="45" font-size="12">near 50%</text>

	<use x="150" y="90" xlink:href="#da" stroke-width="5" />
	<use x="225" y="90" xlink:href="#da" stroke-width="4" />
	<text x="246" y="102" font-size="9">exchange</text>
	<use x="300" y="90" xlink:href="#da" stroke-width="3" />
	<text x="323" y="102" font-size="9">gradient</text>
	<use x="375" y="90" xlink:href="#da" stroke-width="2" />
	<use x="450" y="90" xlink:href="#da" stroke-width="1" />

	<use y="120" fill="url(#r2p)" xlink:href="#r1" />
	<use x="500" y="126" xlink:href="#ra" />
	<text x="535" y="141" font-size="12">flow</text>
	<text x="100" y="165" font-size="12">100%</text>
	<text x="440" y="165" font-size="12">near 50%</text>

	<use y="230" fill="url(#b2r)" xlink:href="#r1" />
	<use x="70" y="236" xlink:href="#la" />
	<text x="40" y="251" font-size="12">flow</text>
	<text x="100" y="225" font-size="12">near 0%</text>
	<text x="465" y="225" font-size="12">100%</text>

	<use x="150" y="270" xlink:href="#da" stroke-width="1" />
	<use x="225" y="270" xlink:href="#da" stroke-width="1" />
	<text x="246" y="282" font-size="9">exchange</text>
	<use x="300" y="270" xlink:href="#da" stroke-width="1" />
	<text x="323" y="282" font-size="9">gradient</text>
	<use x="375" y="270" xlink:href="#da" stroke-width="1" />
	<use x="450" y="270" xlink:href="#da" stroke-width="1" />

	<use y="300" fill="url(#b2r)" xlink:href="#r1" />
	<use x="500" y="306" xlink:href="#ra" />
	<text x="535" y="321" font-size="12">flow</text>
	<text x="100" y="345" font-size="12">0%</text>
	<text x="435" y="345" font-size="12">near 100%</text>

	<text x="210" y="185" font-size="20" font-weight="bold">Concurrent Flow</text>
	<text x="185" y="365" font-size="20" font-weight="bold">Countercurrent Flow</text>
</svg>
